<svg xmlns="http://www.w3.org/2000/svg" fill="none" class="text-primary h-8 w-8" viewBox="0 0 41.5 52"><g clip-path="url(#cp-logo_svg__a)"><path fill="url(#cp-logo_svg__b)" d="M24.619.381a17 17 0 0 0-2.06-.293c-.042-.002-1.38-.086-1.894-.086A20.6 20.6 0 0 0 14.04 1.09c7.244-2.111 10.818 1.08 10.13 4.673-.853 4.472-11.896 6.197-17.607 8.59C.684 16.812 0 20.712 0 20.712c0 2.499.442 4.893 1.25 7.112-.244-1.907-.173-6.7 5.8-9.284 8.51-3.679 22.328-6.628 22.328-12.89 0-3.143-1.771-4.637-4.762-5.271z"></path><path fill="url(#cp-logo_svg__c)" d="M6.567 14.35c5.71-2.393 16.751-4.118 17.607-8.59.685-3.592-2.886-6.785-10.13-4.673C5.877 3.853 0 11.595 0 20.71c0 0 .685-3.898 6.567-6.362"></path><path fill="url(#cp-logo_svg__d)" d="M20.534 21.988c9.66-4.6 13.357-8.335 13.357-13.067 0-3.667-2.107-5.62-3.633-6.557a20 20 0 0 0-1.548-.734c.426.255 2.468 1.66 2.088 5.027-.433 3.842-4.964 6.53-14.153 10.027C7.527 20.156 2.898 20.57 2.38 27.824c-.121 1.708.801 3.934 1.707 5.254a20.7 20.7 0 0 0 2.744 3.016c.107-7.894 4.956-9.94 13.703-14.108z" style="mix-blend-mode: multiply;"></path><path fill="url(#cp-logo_svg__e)" d="M32.507 3.736a21 21 0 0 0-2.249-1.372c1.526.936 3.633 2.89 3.633 6.557 0 4.732-3.697 8.466-13.357 13.067-8.72 4.153-13.568 6.203-13.701 14.037v8.426c0 1.172.949 2.123 2.118 2.123s2.119-.951 2.119-2.123v-5.543c.004-.755.064-4.01 5.639-6.63 10.394-4.888 20.156-8.467 20.156-18.946 0-5.014-1.512-7.38-4.36-9.593z"></path><path fill="url(#cp-logo_svg__f)" d="M39.416 11.997A20.5 20.5 0 0 0 37.55 8.77c.109.24.803 1.96.85 4.608.082 4.425-1.005 11.14-14.01 17.299-9.53 4.515-11.516 5.857-11.516 9.221 0 0 .005 0 .007.003v4.434c0 .557.452 1.013 1.01 1.013.56 0 1.011-.453 1.011-.996v-.894c0-.731.302-2.159 2.152-2.159 2.07 0 2.04 1.904 2.04 2.91v5.14a2.369 2.369 0 0 0 4.736.01V41.18c.028-9.626 20.638-12.047 15.586-29.184z"></path><path fill="url(#cp-logo_svg__g)" d="M41.33 20.711c0-3.112-.687-6.064-1.914-8.714 5.014 17.009-15.252 19.52-15.582 28.97h-.005v-.793 2.028c0-.642.407-1.182 1.122-1.182s1.006.667 1.006 1.181v2.355c0 1.127.88 2.04 1.966 2.04 1.087 0 1.966-.913 1.966-2.04V40.96l.005-1c0-.606.369-.842.742-.842s.708.226.725.803v1.49c0 .929.725 1.681 1.621 1.681.897 0 1.622-.752 1.622-1.682v-5.413a20.68 20.68 0 0 0 6.72-15.286z"></path></g><defs><linearGradient id="cp-logo_svg__b" x1="0" x2="29.381" y1="13.913" y2="13.913" gradientUnits="userSpaceOnUse"><stop stop-color="#034ADD"></stop><stop offset="0.53" stop-color="#0CABDB"></stop><stop offset="0.8" stop-color="#43C7D9"></stop><stop offset="1" stop-color="#66DAD9"></stop></linearGradient><linearGradient id="cp-logo_svg__c" x1="0.621" x2="23.949" y1="12.734" y2="6.073" gradientUnits="userSpaceOnUse"><stop stop-color="#03F3DD"></stop><stop offset="1" stop-color="#66DAD9"></stop></linearGradient><linearGradient id="cp-logo_svg__d" x1="2.37" x2="33.891" y1="18.862" y2="18.862" gradientUnits="userSpaceOnUse"><stop stop-color="#D523DD"></stop><stop offset="0.38" stop-color="#E23ADC"></stop><stop offset="1" stop-color="#F65DDB"></stop></linearGradient><linearGradient id="cp-logo_svg__e" x1="9.075" x2="36.418" y1="29.394" y2="16.933" gradientUnits="userSpaceOnUse"><stop stop-color="#9A0FDD"></stop><stop offset="1" stop-color="#8E20DB"></stop></linearGradient><linearGradient id="cp-logo_svg__f" x1="16.131" x2="40.716" y1="36.926" y2="24.946" gradientUnits="userSpaceOnUse"><stop stop-color="#FC9100"></stop><stop offset="0.41" stop-color="#FC6A43"></stop><stop offset="0.66" stop-color="#FD5666"></stop><stop offset="1" stop-color="#FD4E6B"></stop></linearGradient><linearGradient id="cp-logo_svg__g" x1="26.23" x2="41.524" y1="33.604" y2="25.075" gradientUnits="userSpaceOnUse"><stop stop-color="#FCC100"></stop><stop offset="0.65" stop-color="#FCD848"></stop><stop offset="1" stop-color="#FDE46B"></stop></linearGradient><clipPath id="cp-logo_svg__a"><path fill="#fff" d="M0 0h149v51.723H0z"></path></clipPath></defs></svg>